<?xml version="1.0" encoding="UTF-8" standalone="no"?>
<svg
   xmlns:dc="http://purl.org/dc/elements/1.1/"
   xmlns:cc="http://creativecommons.org/ns#"
   xmlns:rdf="http://www.w3.org/1999/02/22-rdf-syntax-ns#"
   xmlns:svg="http://www.w3.org/2000/svg"
   xmlns="http://www.w3.org/2000/svg"
   xmlns:sodipodi="http://sodipodi.sourceforge.net/DTD/sodipodi-0.dtd"
   xmlns:inkscape="http://www.inkscape.org/namespaces/inkscape"
   width="95.544991mm"
   height="123.77764mm"
   viewBox="0 0 95.544991 123.77764"
   version="1.1"
   id="svg8"
   inkscape:version="1.0.2 (e86c870879, 2021-01-15, custom)"
   sodipodi:docname="icon.svg">
  <defs
     id="defs2">
    <rect
       x="62.680603"
       y="94.956436"
       width="102.90845"
       height="113.66706"
       id="rect835" />
  </defs>
  <sodipodi:namedview
     id="base"
     pagecolor="#ffffff"
     bordercolor="#666666"
     borderopacity="1.0"
     inkscape:pageopacity="0.0"
     inkscape:pageshadow="2"
     inkscape:zoom="1.0542433"
     inkscape:cx="178.82554"
     inkscape:cy="302.77749"
     inkscape:document-units="mm"
     inkscape:current-layer="layer1"
     inkscape:document-rotation="0"
     showgrid="false"
     inkscape:window-width="1173"
     inkscape:window-height="1008"
     inkscape:window-x="-7"
     inkscape:window-y="0"
     inkscape:window-maximized="0" />
  <metadata
     id="metadata5">
    <rdf:RDF>
      <cc:Work
         rdf:about="">
        <dc:format>image/svg+xml</dc:format>
        <dc:type
           rdf:resource="http://purl.org/dc/dcmitype/StillImage" />
        <dc:title></dc:title>
      </cc:Work>
    </rdf:RDF>
  </metadata>
  <g
     inkscape:label="Layer 1"
     inkscape:groupmode="layer"
     id="layer1"
     transform="translate(-48.860451,-64.907232)">
    <text
       xml:space="preserve"
       id="text833"
       style="font-style:normal;font-variant:normal;font-weight:normal;font-stretch:normal;font-size:10.5833px;line-height:1.25;font-family:Satisfy;-inkscape-font-specification:Satisfy;word-spacing:0px;white-space:pre;shape-inside:url(#rect835);" />
    <g
       aria-label="F"
       id="text841"
       style="font-style:normal;font-variant:normal;font-weight:normal;font-stretch:normal;font-size:116.445px;line-height:1.25;font-family:Satisfy;-inkscape-font-specification:Satisfy;word-spacing:0px;fill:#000000;fill-opacity:1;stroke-width:2.91114"
       transform="translate(-165.64013,-52.703678)" />
    <g
       id="g917">
      <path
         style="fill:#209cee;fill-opacity:1;stroke:none;stroke-width:0.519138px;stroke-linecap:butt;stroke-linejoin:miter;stroke-opacity:1"
         d="m 76.610083,67.667213 c -2.632507,4.829384 -5.420929,9.647683 -9.253219,19.516143 -7.283278,6.351672 -28.097204,30.764874 -13.318173,60.124334 0.570756,-4.51625 -0.110737,-7.26797 2.061003,-14.04019 1.408647,6.65916 12.647617,31.0497 36.401722,38.8595 -7.728714,-7.6611 -10.752419,-12.39265 -12.372229,-16.2501 10.380006,8.29619 52.700473,10.19198 62.907513,32.80797 -3.59399,-24.04815 -14.06848,-32.47186 -23.0825,-40.74835 5.97015,2.02638 12.59845,8.86842 19.14311,16.06544 -15.35193,-32.99232 -69.956575,-30.82754 -56.01356,-55.89047 -0.04207,5.29769 0.900407,6.65727 1.53883,9.23301 2.498705,-14.01241 28.89488,-2.45438 31.26293,-14.55646 C 102.51887,99.77765 99.74468,83.263318 95.655574,81.70948 95.859181,78.643647 98.655717,71.463161 100.47913,64.907232 95.041694,66.349608 86.777531,72.385425 79.68583,76.51597 78.836688,73.507685 77.807415,70.55944 76.610083,67.667213 Z"
         id="path868"
         sodipodi:nodetypes="cccccccccccccccc" />
      <g
         aria-label="F"
         id="text841-4"
         style="font-style:normal;font-variant:normal;font-weight:normal;font-stretch:normal;font-size:116.445px;line-height:1.25;font-family:Satisfy;-inkscape-font-specification:Satisfy;word-spacing:0px;fill:#000000;fill-opacity:1;stroke-width:2.91114"
         transform="translate(14.055852,-3.248499)">
        <path
           id="path851-1"
           style="color:#000000;font-style:normal;font-variant:normal;font-weight:normal;font-stretch:normal;font-size:medium;line-height:1.25;font-family:Satisfy;-inkscape-font-specification:Satisfy;font-variant-ligatures:normal;font-variant-position:normal;font-variant-caps:normal;font-variant-numeric:normal;font-variant-alternates:normal;font-variant-east-asian:normal;font-feature-settings:normal;font-variation-settings:normal;text-indent:0;text-align:start;text-decoration:none;text-decoration-line:none;text-decoration-style:solid;text-decoration-color:#000000;letter-spacing:normal;word-spacing:0px;text-transform:none;writing-mode:lr-tb;direction:ltr;text-orientation:mixed;dominant-baseline:auto;baseline-shift:baseline;text-anchor:start;white-space:normal;shape-padding:0;shape-margin:0;inline-size:0;clip-rule:nonzero;display:inline;overflow:visible;visibility:visible;opacity:1;isolation:auto;mix-blend-mode:normal;color-interpolation:sRGB;color-interpolation-filters:linearRGB;solid-color:#000000;solid-opacity:1;vector-effect:none;fill:#000000;fill-opacity:1;fill-rule:nonzero;stroke:none;stroke-width:11.0027;stroke-linecap:butt;stroke-linejoin:miter;stroke-miterlimit:4;stroke-dasharray:none;stroke-dashoffset:0;stroke-opacity:1;color-rendering:auto;image-rendering:auto;shape-rendering:auto;text-rendering:auto;enable-background:accumulate;stop-color:#000000;stop-opacity:1"
           d="m 470.97852,295.11719 c -24.35486,0 -46.2739,1.71791 -65.75782,5.15625 -19.19738,3.43834 -35.81559,8.30966 -49.85547,14.61328 -13.75334,6.30362 -24.49811,13.89693 -32.23437,22.7793 -7.73626,8.59584 -12.1781,18.05217 -13.32422,28.36718 -0.85958,8.88238 0.86028,16.33058 5.1582,22.34766 4.29793,5.73056 9.31241,10.31556 15.04297,13.75391 6.01709,3.43835 11.89053,6.01717 17.6211,7.73632 6.01708,1.7192 10.0275,2.72133 12.0332,3.00782 3.72486,0.57305 7.88039,0.28673 12.46484,-0.85938 4.58445,-1.1461 8.88119,-4.58389 12.89258,-10.31445 l 21.06055,-28.36719 c -3.43834,0.85958 -6.44664,1.5773 -9.02539,2.15039 -2.57876,0.28653 -4.7281,0.57289 -6.44727,0.85938 -2.0057,0.28652 -3.72361,0.42968 -5.15625,0.42968 -7.73626,0.57306 -13.61165,-0.28591 -17.62305,-2.57812 -3.72486,-2.29225 -6.30368,-4.72791 -7.73632,-7.30664 -1.71917,-3.15181 -2.43497,-6.7347 -2.14844,-10.7461 0.57306,-7.16319 5.15807,-13.1798 13.75391,-18.05078 8.88237,-4.87097 19.34082,-8.59507 31.375,-11.17382 12.03417,-2.86529 24.49686,-4.72831 37.39062,-5.5879 13.18031,-1.14611 24.49965,-1.43243 33.95508,-0.85937 5.44403,0.28653 10.3134,1.14548 14.61133,2.57812 4.58445,1.14612 8.45368,2.86598 11.60547,5.15821 3.43835,2.29222 5.87401,5.30052 7.30664,9.02539 1.43263,3.72486 1.86211,8.16671 1.28906,13.32422 -0.57305,4.87097 -2.57923,11.4602 -6.01758,19.76953 -3.43835,8.02276 -7.59191,17.1928 -12.46289,27.50781 -4.87098,10.31501 -10.31495,21.48927 -16.33203,33.52344 -6.01708,11.74764 -12.03565,23.63771 -18.05274,35.67187 h -3.86718 c -0.85958,-0.28649 -2.00683,-0.28649 -3.43946,0 -9.74196,0 -20.19844,0.28629 -31.37304,0.85938 -9.45543,0.57305 -20.34531,1.29081 -32.66602,2.15039 -12.3207,0.85958 -25.21287,2.14799 -38.67969,3.86719 -3.72486,5.1575 -6.44684,9.45618 -8.16601,12.89453 -1.14612,2.00568 -2.00702,4.00994 -2.58008,6.01562 -0.57306,2.00568 -1.00254,4.01186 -1.28906,6.01758 -0.28651,2.00568 -0.42969,4.15506 -0.42969,6.44727 0.28653,2.29224 0.85916,4.5847 1.71875,6.87695 6.59014,-2.29225 13.61081,-4.29839 21.06055,-6.01758 7.73626,-2.00568 14.90008,-3.72557 21.49023,-5.1582 7.73626,-1.43263 15.61589,-2.72105 23.63867,-3.86719 14.61293,-1.71916 28.22284,-2.57812 40.83008,-2.57812 -5.51413,11.57967 -10.74886,22.45772 -15.73242,32.71093 7.93688,4.377 25.17451,14.01132 32.12695,18.98243 1.53967,-4.02148 3.06245,-8.0089 4.66407,-12.1543 5.1575,-12.60722 10.45831,-25.35622 15.90234,-38.25 2.8653,0.28652 5.58728,0.57288 8.16601,0.85937 h 7.73633 c 4.29793,0.28653 8.16712,0.57289 11.60547,0.85938 3.43835,0 6.58978,-0.42949 9.45508,-1.28906 2.8653,-1.14611 5.44412,-3.00916 7.73633,-5.58789 2.57877,-2.57878 5.15759,-6.44602 7.73633,-11.60352 1.43263,-2.57873 -9e-4,-4.44175 -4.29883,-5.58789 -3.72484,-0.57305 -8.88249,-1.28886 -15.47266,-2.14844 -6.30361,-0.85958 -13.32235,-1.5773 -21.05859,-2.15039 5.1575,-12.03417 10.31515,-23.63791 15.47265,-34.8125 5.15751,-11.17459 10.02688,-21.34672 14.61133,-30.51562 4.58446,-9.45544 8.45368,-17.62139 11.60547,-24.49805 3.43835,-7.16323 6.01714,-12.75032 7.73633,-16.76172 3.43835,-8.59584 5.15625,-16.90495 5.15625,-24.92773 0.28652,-8.30932 -2.14718,-15.47315 -7.30469,-21.49024 -4.87098,-6.30362 -12.75061,-11.3181 -23.63867,-15.04297 -10.88806,-4.01139 -25.50203,-6.01562 -43.83984,-6.01562 z m -17.60743,264.01367 c 0.18036,0.17257 0.34861,0.35194 0.52735,0.52539 0.0453,-0.11967 0.0894,-0.23763 0.13476,-0.35742 z m -65.59375,60.88672 c -1.13426,3.56091 -2.21744,7.03776 -3.1875,10.33594 -2.57875,10.02848 -4.58298,18.91216 -6.01562,26.64843 -1.14612,8.02277 -2.00702,15.18467 -2.58008,21.48828 -1.43264,9.16887 -0.57173,14.90112 2.58008,17.19336 3.43833,2.57874 9.16862,2.86506 17.1914,0.85938 2.29223,-0.57305 5.15737,-1.29081 8.59571,-2.15039 3.15181,-0.57305 6.87591,-1.43202 11.17383,-2.57813 4.58445,-1.1461 9.88525,-2.57768 15.90234,-4.29687 C 429.14527,683.21965 428,677.48741 428,670.32422 c 0,-7.16323 0.28632,-14.03877 0.85938,-20.62891 0.56163,-5.05476 1.3253,-10.37979 2.2539,-15.92383 z"
           transform="matrix(0.26458333,0,0,0.26458333,-14.055852,3.248499)" />
      </g>
    </g>
  </g>
</svg>
